<svg width="168" height="143" viewBox="0 0 168 143" fill="none" xmlns="http://www.w3.org/2000/svg">
<g id="Elemento - sos">
<g id="Clip path group">
<mask id="mask0_125_14" style="mask-type:luminance" maskUnits="userSpaceOnUse" x="12" y="0" width="144" height="143">
<g id="aa796a0c9f">
<path id="Vector" d="M12.2749 0.0217285H155.725V142.934H12.2749V0.0217285Z" fill="white"/>
</g>
</mask>
<g mask="url(#mask0_125_14)">
<g id="Group">
<path id="Vector_2" d="M84 142.955C64.8413 142.955 46.8302 135.521 33.2832 122.023C19.7362 108.525 12.2749 90.5775 12.2749 71.4887C12.2749 52.3989 19.7362 34.4526 33.2832 20.9534C46.8302 7.45518 64.8413 0.0217285 84 0.0217285C103.159 0.0217285 121.17 7.45518 134.717 20.9534C148.264 34.4526 155.725 52.3989 155.725 71.4887C155.725 82.1193 152.733 91.9792 152.595 92.4286C151.401 96.323 149.861 100.138 148.014 103.779L155.042 139.188C155.181 139.887 154.965 140.608 154.466 141.117C153.966 141.626 153.246 141.855 152.542 141.734L116.149 135.377C112.3 137.307 108.258 138.895 104.128 140.099C103.729 140.215 94.2222 142.955 84 142.955ZM84 4.33966C65.9993 4.33966 49.0757 11.3248 36.3478 24.0069C23.6188 36.6901 16.6095 53.5527 16.6095 71.4887C16.6095 89.4246 23.6188 106.287 36.3478 118.969C49.0757 131.653 65.9993 138.637 84 138.637C93.6074 138.637 102.819 135.982 102.911 135.955C107.011 134.76 111.016 133.162 114.816 131.207C115.237 130.99 115.717 130.917 116.184 130.999L150.178 136.936L143.616 103.88C143.521 103.4 143.592 102.901 143.818 102.466C145.701 98.8549 147.259 95.0534 148.45 91.1663C148.451 91.1663 148.451 91.1652 148.451 91.1642C148.493 91.0299 151.391 81.4519 151.391 71.4887C151.391 53.5527 144.381 36.6901 131.652 24.0069C118.924 11.3248 102.001 4.33966 84 4.33966Z" fill="white"/>
</g>
</g>
</g>
<g id="Group_2">
<g id="Group_3">
<g id="Group_4">
<path id="Vector_3" d="M28.7052 93.6506H51.3038C58.674 93.6506 64.039 88.3048 64.039 80.9612V79.9892C64.039 72.6456 58.674 67.2998 51.3038 67.2998H40.4659C38.5147 67.2998 36.9431 65.7338 36.9431 63.7897C36.9431 61.7919 38.5147 60.2258 40.4659 60.2258H60.4084C62.4674 60.2258 64.039 58.6598 64.039 56.6083V54.0702C64.039 52.0187 62.4674 50.4526 60.4084 50.4526H37.8098C30.4397 50.4526 25.0746 55.7984 25.0746 63.142V64.0593C25.0746 71.4039 30.4397 76.7497 37.8098 76.7497H48.5949C50.5999 76.7497 52.1716 78.3694 52.1716 80.3135C52.1716 82.3113 50.5999 83.8774 48.5949 83.8774H28.7052C26.6463 83.8774 25.0746 85.4434 25.0746 87.4949V90.033C25.0746 92.0845 26.6463 93.6506 28.7052 93.6506Z" fill="white"/>
</g>
</g>
</g>
<g id="Group_5">
<g id="Group_6">
<g id="Group_7">
<path id="Vector_4" d="M81.8056 93.6506H86.0863C93.7819 93.6506 99.3637 88.0889 99.3637 80.4209V63.6812C99.3637 56.0143 93.7819 50.4526 86.0863 50.4526H81.8056C74.11 50.4526 68.5282 56.0143 68.5282 63.6812V80.4209C68.5282 88.0889 74.11 93.6506 81.8056 93.6506ZM83.9195 83.8774C81.9684 83.8774 80.3967 82.3113 80.3967 80.3135V63.7897C80.3967 61.7919 81.9684 60.2258 83.9195 60.2258C85.9245 60.2258 87.4962 61.7919 87.4962 63.7897V80.3135C87.4962 82.3113 85.9245 83.8774 83.9195 83.8774Z" fill="white"/>
</g>
</g>
</g>
<g id="Group_8">
<g id="Group_9">
<g id="Group_10">
<path id="Vector_5" d="M107.485 93.6506H130.084C137.454 93.6506 142.819 88.3048 142.819 80.9612V79.9892C142.819 72.6456 137.454 67.2998 130.084 67.2998H119.246C117.295 67.2998 115.723 65.7338 115.723 63.7897C115.723 61.7919 117.295 60.2258 119.246 60.2258H139.188C141.247 60.2258 142.819 58.6598 142.819 56.6083V54.0702C142.819 52.0187 141.247 50.4526 139.188 50.4526H116.59C109.219 50.4526 103.854 55.7984 103.854 63.142V64.0593C103.854 71.4039 109.219 76.7497 116.59 76.7497H127.375C129.38 76.7497 130.951 78.3694 130.951 80.3135C130.951 82.3113 129.38 83.8774 127.375 83.8774H107.485C105.426 83.8774 103.854 85.4434 103.854 87.4949V90.033C103.854 92.0845 105.426 93.6506 107.485 93.6506Z" fill="white"/>
</g>
</g>
</g>
</g>
</svg>
