<svg width="164" height="143" viewBox="0 0 164 143" fill="none" xmlns="http://www.w3.org/2000/svg">
<path id="Vector" d="M93.6092 20.7499C89.7068 20.374 85.7666 19.7729 81.8642 19.6982C71.658 19.435 61.6767 21.3889 51.6208 22.93C48.0188 23.4932 46.2919 25.0713 44.6784 28.1905C39.1257 38.8609 33.0846 49.2692 27.2305 59.7533C26.8554 60.467 26.367 61.3692 26.4804 62.083C27.0424 65.3896 27.8313 68.6204 28.5813 72.1902C29.5572 71.4385 30.3072 70.8753 31.0583 70.349C35.2601 67.2308 40.4766 67.8698 43.1027 71.8522C45.0166 74.7083 44.7918 77.9391 42.4651 80.4572C37.6246 85.7177 32.7463 90.9781 27.8313 96.2007C25.4668 98.7188 21.4519 99.1694 18.3752 97.3661C15.4854 95.6743 14.1346 92.3309 15.186 88.9116C15.6356 87.4462 16.3867 86.0177 17.3247 84.7776C19.0506 82.4858 21.0391 80.3814 22.8406 78.1275C23.2902 77.5633 23.6285 76.5863 23.5161 75.9105C23.0654 73.4303 22.4278 70.988 21.7892 68.5456C21.6768 68.0951 21.2271 67.5308 20.7765 67.3434C19.0884 66.6665 17.2113 66.2907 15.6356 65.4264C12.2585 63.5852 9.03148 61.4818 5.72992 59.4901C4.79187 58.9269 3.85382 58.4384 2.84015 58.0247C0.288619 56.972 -0.386817 55.8456 0.626848 53.2906C1.7897 50.3967 3.10277 47.5417 4.49145 44.7604C10.0819 33.4878 16.2733 22.5542 23.2535 12.0701C24.4163 10.3416 25.7672 8.68878 27.2305 7.14761C29.5572 4.66842 31.5079 4.40524 34.2096 6.50963C37.8494 9.32778 41.3768 12.3712 44.754 15.5273C46.4053 17.0674 47.7929 17.7822 50.2699 17.2937C60.101 15.302 70.0445 13.6861 80.1005 13.6482C88.5439 13.6113 96.9118 14.5125 104.341 19.2845C106.18 20.4867 108.056 19.6982 109.369 18.0075C113.459 12.747 117.587 7.48656 121.902 2.37561C123.628 0.309106 125.129 0.384884 127.193 2.15032C139.05 12.3712 150.87 22.5911 162.69 32.812C164.341 34.2395 164.416 35.7806 162.84 37.5082C159.763 40.8906 156.649 44.2719 153.496 47.5785C151.995 49.1566 150.758 50.5851 150.382 52.9895C149.519 58.7763 147.868 64.3747 143.965 69.1846C145.092 70.0858 145.954 71.0258 147.004 71.6648C151.283 74.3325 151.92 78.3149 150.87 82.7111C149.407 88.8737 145.504 92.8193 139.388 94.4353C138.262 94.7353 137.887 95.2238 137.7 96.4639C136.686 103.377 133.91 109.202 127.155 112.358C126.554 112.621 126.142 113.711 126.067 114.462C125.766 118.183 124.941 121.715 122.465 124.683C120.326 127.238 117.549 128.816 114.209 128.967C112.596 129.041 112.109 129.717 111.733 131.108C110.082 137.345 103.215 142.682 96.7983 142.381C94.6974 142.268 92.3707 141.404 90.6448 140.201C83.8527 135.429 77.2863 130.394 70.6076 125.434C70.4574 125.321 70.3071 125.246 69.9699 125.058C68.6558 126.487 67.3806 127.99 65.9919 129.379C62.0895 133.325 55.8982 132.273 53.4968 127.275C52.3708 124.945 52.4086 122.691 54.2847 120.587C58.9381 115.289 63.6284 110.028 68.0182 104.542C70.8324 101.048 75.636 101.461 78.0374 103.302C81.1141 105.632 82.09 110.254 79.8756 113.485C78.6004 115.364 76.9113 116.943 75.4102 118.671C74.9606 119.196 74.4722 119.723 73.8723 120.399C75.823 121.94 77.5867 123.443 79.4628 124.833C84.3789 128.402 89.3318 131.898 94.2846 135.466C95.8603 136.594 97.4738 136.744 99.2375 136.031C102.54 134.753 105.316 132.911 106.405 129.229C106.705 128.139 106.555 127.351 105.729 126.674C99.4255 121.564 93.1218 116.491 86.7802 111.419C85.4294 110.366 84.0407 109.427 84.1909 107.399C84.3411 105.67 85.4672 104.617 87.1174 105.106C88.5807 105.519 90.0818 106.195 91.2824 107.135C96.6481 111.419 101.901 115.815 107.192 120.173C107.718 120.587 108.168 121.038 108.694 121.451C112.746 124.683 118.224 122.842 119.575 117.807C119.688 117.355 119.801 116.867 119.876 116.416C120.513 113.523 120.1 111.23 117.399 109.24C111.433 104.844 105.729 100.146 99.9885 95.4869C99.1629 94.8101 98.2248 93.9837 97.9622 93.0446C97.6996 92.1056 97.8498 90.6023 98.4874 89.9633C99.0873 89.3622 100.514 89.3622 101.564 89.4001C102.202 89.437 102.803 90.076 103.366 90.5265C109.369 95.3364 115.372 100.184 121.377 104.993C124.453 107.473 125.729 107.361 128.243 104.279C130.344 101.724 131.883 98.8683 131.92 95.4869C131.92 94.5848 131.433 93.4583 130.757 92.8562C125.504 88.3474 120.176 83.9512 114.923 79.4424C113.872 78.5781 112.934 77.5264 112.183 76.3989C111.433 75.3094 111.62 73.8809 112.708 73.1671C113.534 72.6418 114.923 72.3407 115.823 72.6786C117.136 73.1671 118.262 74.1819 119.35 75.121C124.153 79.2171 128.956 83.3501 133.647 87.5589C135.373 89.099 137.099 89.5496 139.013 88.3474C140.626 87.3336 142.352 86.3188 143.515 84.8902C146.329 81.5089 145.879 78.3528 142.615 75.4968C129.406 63.8863 116.236 52.2758 102.99 40.7779C102.202 40.101 100.814 39.6883 99.7627 39.8379C93.9842 40.5895 88.2057 41.4169 82.5028 42.4307C80.6635 42.7686 78.8998 43.7087 77.0993 44.4225C71.7326 46.6016 66.8176 45.6247 62.3143 42.3181C59.2754 40.101 58.9381 37.1334 61.6389 34.4647C64.1536 31.9856 67.2304 30.0686 69.7819 27.6262C73.1969 24.3575 77.2863 23.1553 81.8642 22.8164C85.8044 22.5163 89.7068 21.8026 93.647 21.2762C93.6092 21.1636 93.6092 20.9751 93.6092 20.7499ZM31.3955 11.2816C21.4141 24.6207 14.0978 38.9367 6.93058 53.4032C11.396 55.9951 15.561 58.4384 19.8763 60.9555C26.555 48.7807 33.1214 36.8323 39.6509 24.8839C40.3264 23.6438 41.714 22.2152 41.4892 21.1257C41.2644 19.9235 39.5753 18.9844 38.487 17.9696C36.3115 15.8283 34.0226 13.724 31.3955 11.2816ZM156.723 35.3669C155.448 34.3152 154.322 33.4131 153.271 32.474C148.618 28.3031 144.04 24.0565 139.275 19.9613C134.96 16.241 130.457 12.6712 126.029 9.10146C125.616 8.76353 124.528 8.613 124.303 8.83931C121.301 12.3333 118.374 15.9031 115.336 19.5476C125.955 28.34 136.461 37.0576 147.08 45.85C150.345 42.356 153.496 38.9367 156.723 35.3669Z" fill="white"/>
</svg>
